<?xml version="1.0" encoding="utf-8"?>
<svg viewBox="0 0 500 500" xmlns="http://www.w3.org/2000/svg">
  <rect x="13.226" width="28.327" height="300"
    style="fill: rgb(247, 207, 73); paint-order: fill; stroke: var(--clr-h1, rgb(51, 51, 51));"
    transform="matrix(0.9999999999999999, 0, 0, 0.9999999999999999, 0, -1.1368683772161603e-13)" />
  <rect x="57.1" width="28.327" height="300"
    style="fill: rgb(247, 207, 73); paint-order: fill; stroke: var(--clr-h1, rgb(51, 51, 51));"
    transform="matrix(0.9999999999999999, 0, 0, 0.9999999999999999, 0, -1.1368683772161603e-13)" />
  <text
    style="fill: var(--clr-h1, rgb(51, 51, 51)); font-family: Noto Sans, Helvetica Neue, Helvetica, Arial, sans-serif; font-size: 42.46px; font-weight: 700; text-transform: capitalize; white-space: pre;"
    x="-12.967766761779785" y="174.3770980834961"
    transform="matrix(1.8129708766937254, 0, 0, 1.8129708766937254, -91.97018432617188, -428.8238220214845)">
    <tspan x="127.11" y="340">Safer</tspan>
    <tspan x="127.11" y="400">Marshall</tspan>
  </text>
  <rect x="57.217" y="400" width="28.327" height="100"
    style="fill: rgb(247, 207, 73); paint-order: fill; stroke: var(--clr-h1, rgb(51, 51, 51));"
    transform="matrix(0.9999999999999999, 0, 0, 0.9999999999999999, 0, -1.1368683772161603e-13)" />
  <rect x="14.348" y="400" width="28.327" height="100"
    style="fill: rgb(247, 207, 73); paint-order: fill; stroke: var(--clr-h1, rgb(51, 51, 51));"
    transform="matrix(0.9999999999999999, 0, 0, 0.9999999999999999, 0, -1.1368683772161603e-13)" />
  <rect x="14.795" y="314.95" width="28.327" height="69.684"
    style="fill: var(--clr-h1, rgb(51, 51, 51)); stroke: var(--clr-h1, rgb(51, 51, 51));"
    transform="matrix(0.9999999999999999, 0, 0, 0.9999999999999999, 0, -1.1368683772161603e-13)" />
  <rect x="57.478" y="315.083" width="28.327" height="69.684"
    style="fill: var(--clr-h1, rgb(51, 51, 51)); stroke: var(--clr-h1, rgb(51, 51, 51));"
    transform="matrix(0.9999999999999999, 0, 0, 0.9999999999999999, 0, -1.1368683772161603e-13)" />
  <rect x="100" y="314.619" width="28.327" height="69.684"
    style="fill: var(--clr-h1, rgb(51, 51, 51)); stroke: var(--clr-h1, rgb(51, 51, 51));"
    transform="matrix(0.9999999999999999, 0, 0, 0.9999999999999999, 0, -1.1368683772161603e-13)" />
  <rect x="141.808" y="315.012" width="28.327" height="69.684"
    style="fill: var(--clr-h1, rgb(51, 51, 51)); stroke: var(--clr-h1, rgb(51, 51, 51));"
    transform="matrix(0.9999999999999999, 0, 0, 0.9999999999999999, 0, -1.1368683772161603e-13)" />
  <rect x="183.534" y="315.132" width="28.327" height="69.684"
    style="fill: var(--clr-h1, rgb(51, 51, 51)); stroke: var(--clr-h1, rgb(51, 51, 51));"
    transform="matrix(0.9999999999999999, 0, 0, 0.9999999999999999, 0, -1.1368683772161603e-13)" />
  <rect x="225.556" y="315.692" width="28.327" height="69.684"
    style="fill: var(--clr-h1, rgb(51, 51, 51)); stroke: var(--clr-h1, rgb(51, 51, 51));"
    transform="matrix(0.9999999999999999, 0, 0, 0.9999999999999999, 0, -1.1368683772161603e-13)" />
  <rect x="268.239" y="315.825" width="28.327" height="69.684"
    style="fill: var(--clr-h1, rgb(51, 51, 51)); stroke: var(--clr-h1, rgb(51, 51, 51));"
    transform="matrix(0.9999999999999999, 0, 0, 0.9999999999999999, 0, -1.1368683772161603e-13)" />
  <rect x="310.761" y="315.361" width="28.327" height="69.684"
    style="fill: var(--clr-h1, rgb(51, 51, 51)); stroke: var(--clr-h1, rgb(51, 51, 51));"
    transform="matrix(0.9999999999999999, 0, 0, 0.9999999999999999, 0, -1.1368683772161603e-13)" />
  <rect x="352.569" y="315.754" width="28.327" height="69.684"
    style="fill: var(--clr-h1, rgb(51, 51, 51)); stroke: var(--clr-h1, rgb(51, 51, 51));"
    transform="matrix(0.9999999999999999, 0, 0, 0.9999999999999999, 0, -1.1368683772161603e-13)" />
  <rect x="394.295" y="315.874" width="28.327" height="69.684"
    style="fill: var(--clr-h1, rgb(51, 51, 51)); stroke: var(--clr-h1, rgb(51, 51, 51));"
    transform="matrix(0.9999999999999999, 0, 0, 0.9999999999999999, 0, -1.1368683772161603e-13)" />
  <rect x="435.58" y="316.326" width="28.327" height="69.684"
    style="fill: var(--clr-h1, rgb(51, 51, 51)); stroke: var(--clr-h1, rgb(51, 51, 51));"
    transform="matrix(0.9999999999999999, 0, 0, 0.9999999999999999, 0, -1.1368683772161603e-13)" />
  <rect x="478.258" y="316.291" width="21.742" height="69.684"
    style="fill: var(--clr-h1, rgb(51, 51, 51)); stroke: var(--clr-h1, rgb(51, 51, 51));"
    transform="matrix(0.9999999999999999, 0, 0, 0.9999999999999999, 0, -1.1368683772161603e-13)" />
</svg>